<svg width="68" height="36" viewBox="0 0 219 95" fill="none" xmlns="http://www.w3.org/2000/svg">
<path d="M45.1386 29.1012C47.2457 28.4562 49.4933 28.1122 51.8252 28.1122C62.0331 28.1122 70.5553 34.7683 72.5032 43.6173L86.9722 40.9084C83.657 25.8763 69.1786 14.5592 51.8252 14.5592C47.8451 14.5592 44.0335 15.1526 40.4561 16.2533L45.1386 29.1012Z" fill="#FFCB05"/>
<path d="M28.0664 72.1508L37.8529 61.9947C33.4888 58.4431 30.7355 53.2575 30.7355 47.4785C30.7355 41.7082 33.4888 36.5226 37.8529 32.9796L28.0664 22.8148C20.6493 28.8518 15.9668 37.6664 15.9668 47.4785C15.9668 57.2993 20.6493 66.1139 28.0664 72.1508" fill="#00A4E0"/>
<path d="M72.5032 51.3655C70.5459 60.2059 62.0331 66.8534 51.8346 66.8534C49.4933 66.8534 47.2363 66.5094 45.1386 65.8558L40.4561 78.7209C44.0335 79.813 47.8544 80.4064 51.8346 80.4064C69.1693 80.4064 83.6383 69.1065 86.9722 54.0916L72.5032 51.3655Z" fill="#EF4123"/>
<path d="M99.6245 62.416C99.1469 61.7108 98.5101 60.5843 98.1167 59.7501C95.8223 54.8655 95.7193 49.809 97.6485 44.9588C99.7744 39.6356 103.839 35.568 109.093 33.4869C115.695 30.8812 122.99 31.3886 129.321 34.837C133.339 36.9525 136.186 40.2204 138.349 44.847C138.621 45.4404 138.864 46.0681 139.108 46.6099L99.6245 62.416ZM112.81 41.3383C108.119 43.1873 105.702 47.2291 106.208 51.9589L126.062 44.1074C122.644 40.4268 118.205 39.2056 112.81 41.3383ZM128.534 58.4172C128.525 58.4172 128.525 58.4258 128.525 58.4258L128.113 58.1678C126.924 59.9307 125.079 61.3668 122.747 62.2956C118.308 64.0671 114.197 63.6114 111.237 61.2293L110.966 61.6076C110.966 61.6076 110.966 61.599 110.956 61.599L105.918 68.5217C107.173 69.3215 108.512 69.9923 109.917 70.534C115.48 72.6581 121.173 72.555 126.783 70.3191C130.838 68.7023 134.022 66.2428 136.195 63.1212L128.534 58.4172ZM152.902 23.3049V61.7796L159.42 64.2047L155.721 72.1336L148.529 69.3817C146.918 68.7367 145.813 67.7564 144.989 66.647C144.193 65.5205 143.603 63.9639 143.603 61.8828V23.3049H152.902ZM169.778 51.9847C169.778 48.7082 171.361 45.7671 173.852 43.772L167.165 36.9267C162.632 40.6074 159.776 45.9821 159.776 51.9675C159.767 57.9614 162.623 63.3448 167.146 67.0254L173.824 60.1801C171.342 58.1764 169.778 55.2525 169.778 51.9847ZM181.653 62.8976C180.342 62.8976 179.068 62.6912 177.888 62.33L174.695 71.0414C176.877 71.7122 179.209 72.082 181.644 72.082C192.226 72.0906 201.057 65.1937 203.108 56.0351L193.294 54.1948C192.179 59.1739 187.394 62.9062 181.653 62.8976ZM181.681 31.8874C179.255 31.8874 176.924 32.2485 174.741 32.9107L177.907 41.6307C179.096 41.2695 180.361 41.0717 181.672 41.0717C187.422 41.0803 192.217 44.8298 193.303 49.8176L203.118 47.9944C201.104 38.8186 192.273 31.896 181.681 31.8874Z" fill="white"/>
</svg>
